<svg xmlns="http://www.w3.org/2000/svg" viewBox="0 0 1000 620" font-family="system-ui,-apple-system,'Segoe UI',sans-serif"><defs><marker id="a" viewBox="0 0 10 10" refX="8" refY="5" markerWidth="7" markerHeight="7" orient="auto-start-reverse"><path d="M0 0L10 5L0 10z" fill="#1d63d8"/></marker></defs><rect width="1000" height="620" fill="#ffffff"/><rect x="60" y="90" width="200" height="120" rx="14" fill="#ffffff" stroke="#00356b" stroke-width="3"/><text x="160.0" y="150" font-size="40" font-weight="600" fill="#0f1115" text-anchor="middle" dominant-baseline="middle">Crisis</text><line x1="270" y1="150" x2="340" y2="150" stroke="#1d63d8" stroke-width="5" marker-end="url(#a)"/><rect x="350" y="70" width="300" height="160" rx="14" fill="#ffffff" stroke="#00356b" stroke-width="3"/><text x="500.0" y="125" font-size="40" font-weight="600" fill="#0f1115" text-anchor="middle" dominant-baseline="middle">Accounting</text><text x="500.0" y="175" font-size="40" font-weight="600" fill="#0f1115" text-anchor="middle" dominant-baseline="middle">rules</text><text x="500" y="270" font-size="30" font-weight="500" fill="#6b7280" text-anchor="middle">conservative vs. flexible</text><line x1="660" y1="150" x2="730" y2="150" stroke="#1d63d8" stroke-width="5" marker-end="url(#a)"/><rect x="740" y="90" width="200" height="120" rx="14" fill="#ffffff" stroke="#00356b" stroke-width="3"/><text x="840.0" y="126" font-size="38" font-weight="600" fill="#0f1115" text-anchor="middle" dominant-baseline="middle">Bond</text><text x="840.0" y="174" font-size="38" font-weight="600" fill="#0f1115" text-anchor="middle" dominant-baseline="middle">prices</text><path d="M840 220 Q 840 400 560 430" fill="none" stroke="#1d63d8" stroke-width="5" marker-end="url(#a)"/><rect x="180" y="370" width="360" height="130" rx="14" fill="#ffffff" stroke="#00356b" stroke-width="3"/><text x="360.0" y="410" font-size="40" font-weight="600" fill="#0f1115" text-anchor="middle" dominant-baseline="middle">Firm</text><text x="360.0" y="460" font-size="40" font-weight="600" fill="#0f1115" text-anchor="middle" dominant-baseline="middle">investment</text><text x="500" y="580" font-size="31" font-weight="600" fill="#00356b" text-anchor="middle">How recognition rules transmit crises to real activity</text></svg>