<svg xmlns="http://www.w3.org/2000/svg" viewBox="0 0 1000 620" font-family="system-ui,-apple-system,'Segoe UI',sans-serif"><defs><marker id="a" viewBox="0 0 10 10" refX="8" refY="5" markerWidth="7" markerHeight="7" orient="auto-start-reverse"><path d="M0 0L10 5L0 10z" fill="#1d63d8"/></marker></defs><rect width="1000" height="620" fill="#ffffff"/><rect x="70" y="110" width="380" height="180" rx="22" fill="#ffffff" stroke="#00356b" stroke-width="3"/><path d="M140 290 l14 36 l30 -36" fill="#ffffff" stroke="#00356b" stroke-width="3"/><line x1="120" y1="160" x2="400" y2="160" stroke="#1d63d8" stroke-width="9" stroke-linecap="round"/><line x1="120" y1="200" x2="340" y2="200" stroke="#1d63d8" stroke-width="9" stroke-linecap="round"/><line x1="120" y1="240" x2="370" y2="240" stroke="#1d63d8" stroke-width="9" stroke-linecap="round"/><rect x="550" y="110" width="380" height="180" rx="22" fill="#ffffff" stroke="#00356b" stroke-width="3"/><path d="M830 290 l14 36 l30 -36" fill="#ffffff" stroke="#00356b" stroke-width="3"/><line x1="600" y1="160" x2="880" y2="160" stroke="#6b7280" stroke-width="9" stroke-linecap="round" stroke-dasharray="2 14"/><line x1="600" y1="200" x2="820" y2="200" stroke="#6b7280" stroke-width="9" stroke-linecap="round" stroke-dasharray="2 14"/><line x1="600" y1="240" x2="850" y2="240" stroke="#6b7280" stroke-width="9" stroke-linecap="round" stroke-dasharray="2 14"/><text x="260" y="380" font-size="34" font-weight="600" fill="#0f1115" text-anchor="middle">Peer earnings call</text><text x="740" y="380" font-size="34" font-weight="600" fill="#0f1115" text-anchor="middle">Mimicking firm</text><line x1="460" y1="200" x2="540" y2="200" stroke="#1d63d8" stroke-width="6" marker-end="url(#a)"/><text x="500" y="500" font-size="38" font-weight="700" fill="#00356b" text-anchor="middle">Imitation or innovation?</text><text x="500" y="548" font-size="30" font-weight="500" fill="#6b7280" text-anchor="middle">Strategic language mimicry on earnings calls</text></svg>