<svg xmlns="http://www.w3.org/2000/svg" viewBox="0 0 1000 620" font-family="system-ui,-apple-system,'Segoe UI',sans-serif"><defs><marker id="a" viewBox="0 0 10 10" refX="8" refY="5" markerWidth="7" markerHeight="7" orient="auto-start-reverse"><path d="M0 0L10 5L0 10z" fill="#1d63d8"/></marker></defs><rect width="1000" height="620" fill="#ffffff"/><rect x="60" y="80" width="300" height="100" rx="14" fill="#ffffff" stroke="#6b7280" stroke-width="2"/><text x="210.0" y="130" font-size="34" font-weight="600" fill="#6b7280" text-anchor="middle" dominant-baseline="middle">Jurisdiction A</text><line x1="370" y1="130" x2="470" y2="257.5" stroke="#1d63d8" stroke-width="5" marker-end="url(#a)"/><rect x="60" y="220" width="300" height="100" rx="14" fill="#ffffff" stroke="#6b7280" stroke-width="2"/><text x="210.0" y="270" font-size="34" font-weight="600" fill="#6b7280" text-anchor="middle" dominant-baseline="middle">Jurisdiction B</text><line x1="370" y1="270" x2="470" y2="292.5" stroke="#1d63d8" stroke-width="5" marker-end="url(#a)"/><rect x="60" y="360" width="300" height="100" rx="14" fill="#ffffff" stroke="#6b7280" stroke-width="2"/><text x="210.0" y="410" font-size="34" font-weight="600" fill="#6b7280" text-anchor="middle" dominant-baseline="middle">Jurisdiction C</text><line x1="370" y1="410" x2="470" y2="327.5" stroke="#1d63d8" stroke-width="5" marker-end="url(#a)"/><rect x="480" y="230" width="260" height="150" rx="14" fill="#ffffff" stroke="#00356b" stroke-width="3"/><text x="610.0" y="260" font-size="36" font-weight="600" fill="#0f1115" text-anchor="middle" dominant-baseline="middle">Multi-</text><text x="610.0" y="305" font-size="36" font-weight="600" fill="#0f1115" text-anchor="middle" dominant-baseline="middle">jurisdiction</text><text x="610.0" y="350" font-size="36" font-weight="600" fill="#0f1115" text-anchor="middle" dominant-baseline="middle">firm</text><line x1="750" y1="305" x2="850" y2="305" stroke="#1d63d8" stroke-width="5" marker-end="url(#a)"/><rect x="855" y="170" width="130" height="270" rx="14" fill="#e7e9ec"/><text x="920" y="250" font-size="36" font-weight="700" fill="#0f1115" text-anchor="middle">Higher</text><text x="920" y="300" font-size="36" font-weight="700" fill="#0f1115" text-anchor="middle">tax</text><text x="920" y="350" font-size="36" font-weight="700" fill="#0f1115" text-anchor="middle">burden</text><text x="500" y="560" font-size="32" font-weight="600" fill="#00356b" text-anchor="middle">Fragmented rules compound into spillover costs</text></svg>