<svg xmlns="http://www.w3.org/2000/svg" viewBox="0 0 1600 420" preserveAspectRatio="xMidYMid slice">
  <defs>
    <linearGradient id="bg" x1="0" y1="0" x2="1" y2="1">
      <stop offset="0" stop-color="#00356b"/>
      <stop offset="0.55" stop-color="#00294f"/>
      <stop offset="1" stop-color="#001d3a"/>
    </linearGradient>
  </defs>
  <rect width="1600" height="420" fill="url(#bg)"/>
  <!-- fine grid -->
  <g stroke="#3d6ea3" stroke-width="1" opacity="0.14">
    <path d="M0 105 H1600 M0 210 H1600 M0 315 H1600"/>
    <path d="M200 0 V420 M400 0 V420 M600 0 V420 M800 0 V420 M1000 0 V420 M1200 0 V420 M1400 0 V420"/>
  </g>
  <!-- concentric arches, right cluster -->
  <g fill="none" stroke="#6f9cc9" stroke-width="1.3">
    <path d="M1010 420 a260 260 0 0 1 520 0" opacity="0.45"/>
    <path d="M1050 420 a220 220 0 0 1 440 0" opacity="0.34"/>
    <path d="M1090 420 a180 180 0 0 1 360 0" opacity="0.24"/>
  </g>
  <!-- faint left arch -->
  <g fill="none" stroke="#6f9cc9" stroke-width="1.1">
    <path d="M-120 420 a230 230 0 0 1 460 0" opacity="0.15"/>
    <path d="M-80 420 a190 190 0 0 1 380 0" opacity="0.09"/>
  </g>
  <!-- constellation of knowledge inside the arch -->
  <g stroke="#8fb4d9" stroke-width="1" fill="none">
    <path d="M1160 350 L 1235 290 L 1330 322 L 1160 350 M1235 290 L 1290 236 L 1360 262 L 1330 322 M1290 236 L 1382 196 M1360 262 L 1440 300 L 1330 322" opacity="0.3"/>
  </g>
  <g fill="#8fb4d9">
    <circle cx="1160" cy="350" r="2.6" opacity="0.55"/>
    <circle cx="1235" cy="290" r="3.2" opacity="0.65"/>
    <circle cx="1330" cy="322" r="2.8" opacity="0.6"/>
    <circle cx="1290" cy="236" r="3.6" opacity="0.7"/>
    <circle cx="1360" cy="262" r="2.4" opacity="0.5"/>
    <circle cx="1382" cy="196" r="2.2" opacity="0.45"/>
    <circle cx="1440" cy="300" r="2.4" opacity="0.5"/>
  </g>
</svg>
